<?xml version="1.0" encoding="UTF-8" standalone="no"?>
<!DOCTYPE svg PUBLIC "-//W3C//DTD SVG 1.1//EN" "http://www.w3.org/Graphics/SVG/1.1/DTD/svg11.dtd">
<svg width="100%" height="100%" viewBox="0 0 3075 3840" version="1.1" xmlns="http://www.w3.org/2000/svg" xmlns:xlink="http://www.w3.org/1999/xlink" xml:space="preserve" xmlns:serif="http://www.serif.com/" style="fill-rule:evenodd;clip-rule:evenodd;stroke-linecap:round;stroke-linejoin:round;stroke-miterlimit:2;">
    <g id="Background">
        <g transform="matrix(1,0,0,1,-481.444,-318.972)">
            <g transform="matrix(4.16667,0,0,4.16667,-3768.97,-3514.41)">
                <path d="M1269.9,930.692C1274.89,930.692 1279.42,928.863 1282.85,925.885C1279.42,922.908 1274.89,921.081 1269.9,921.081C1264.92,921.081 1260.38,922.908 1256.95,925.885C1260.38,928.863 1264.92,930.692 1269.9,930.692Z" style="fill:rgb(193,175,124);fill-rule:nonzero;"/>
            </g>
            <g transform="matrix(4.16667,0,0,4.16667,-3768.97,-3514.41)">
                <path d="M1025.97,1033.79L1025.97,926.012" style="fill:none;stroke:rgb(193,175,124);stroke-width:3px;"/>
            </g>
            <g transform="matrix(4.16667,0,0,4.16667,-3768.97,-3514.41)">
                <path d="M1025.97,1034.19C1025.97,1039.16 1030,1043.19 1034.98,1043.19C1039.95,1043.19 1043.98,1039.16 1043.98,1034.19C1043.98,1029.21 1039.95,1025.18 1034.98,1025.18" style="fill:none;stroke:rgb(193,175,124);stroke-width:3px;"/>
            </g>
            <g transform="matrix(4.16667,0,0,4.16667,-3768.97,-3514.41)">
                <path d="M1025.97,1000.18L1025.97,973.201" style="fill:none;stroke:rgb(193,175,124);stroke-width:3px;"/>
            </g>
            <g transform="matrix(4.16667,0,0,4.16667,-3768.97,-3514.41)">
                <path d="M1025.97,1000.46C1025.97,1003.96 1028.81,1006.8 1032.31,1006.8C1035.81,1006.8 1038.65,1003.96 1038.65,1000.46C1038.65,996.957 1035.81,994.119 1032.31,994.119" style="fill:none;stroke:rgb(193,175,124);stroke-width:3px;"/>
            </g>
            <g transform="matrix(4.16667,0,0,4.16667,-3768.97,-3514.41)">
                <path d="M1031.85,925.887C1031.85,929.131 1029.21,931.762 1025.97,931.762C1022.73,931.762 1020.1,929.131 1020.1,925.887C1020.1,922.642 1022.73,920.012 1025.97,920.012C1029.21,920.012 1031.85,922.642 1031.85,925.887Z" style="fill:rgb(193,175,124);fill-rule:nonzero;"/>
            </g>
            <g transform="matrix(4.16667,0,0,4.16667,-3768.97,-3514.41)">
                <path d="M1025.97,925.887L1268.76,925.887" style="fill:none;stroke:rgb(193,175,124);stroke-width:3px;"/>
            </g>
            <g transform="matrix(4.16667,0,0,4.16667,-3768.97,-3514.41)">
                <path d="M1252.97,921.887L1252.97,930.137" style="fill:none;stroke:rgb(193,175,124);stroke-width:3px;"/>
            </g>
            <g transform="matrix(4.16667,0,0,4.16667,-3768.97,-3514.41)">
                <path d="M1227.65,942.191C1231.77,942.191 1235.51,940.681 1238.35,938.22C1235.51,935.761 1231.77,934.252 1227.65,934.252C1223.53,934.252 1219.78,935.761 1216.95,938.22C1219.78,940.681 1223.53,942.191 1227.65,942.191Z" style="fill:rgb(193,175,124);fill-rule:nonzero;"/>
            </g>
            <g transform="matrix(4.16667,0,0,4.16667,-3768.97,-3514.41)">
                <path d="M1226.71,938.221L1082.76,938.221C1082.76,938.221 1079.26,947.553 1070.43,948.053" style="fill:none;stroke:rgb(193,175,124);stroke-width:3px;"/>
            </g>
            <g transform="matrix(4.16667,0,0,4.16667,-3768.97,-3514.41)">
                <path d="M1213.66,934.916L1213.66,941.733" style="fill:none;stroke:rgb(193,175,124);stroke-width:3px;"/>
            </g>
            <g transform="matrix(4.16667,0,0,4.16667,-3768.97,-3514.41)">
                <path d="M1034.95,995.594C1034.95,996.963 1033.84,998.072 1032.47,998.072C1031.1,998.072 1029.99,996.963 1029.99,995.594C1029.99,994.225 1031.1,993.115 1032.47,993.115C1033.84,993.115 1034.95,994.225 1034.95,995.594Z" style="fill:rgb(193,175,124);fill-rule:nonzero;"/>
            </g>
            <g transform="matrix(4.16667,0,0,4.16667,-3768.97,-3514.41)">
                <path d="M1045.85,925.887C1045.85,925.887 1028.85,927.514 1027.85,943.137C1026.85,958.762 1039.85,962.262 1048.1,960.262C1056.35,958.262 1061.22,949.762 1056.72,941.762C1052.22,933.762 1040.85,936.303 1040.68,944.387C1040.51,952.47 1050.76,953.303 1052.26,949.22" style="fill:none;stroke:rgb(193,175,124);stroke-width:3px;"/>
            </g>
            <g transform="matrix(4.16667,0,0,4.16667,-3768.97,-3514.41)">
                <path d="M1037.35,959.683C1037.35,959.683 1045.76,965.137 1044.68,972.803C1043.6,980.47 1030.91,982.512 1029.22,974.387C1027.53,966.262 1039.16,963.637 1041.35,971.074" style="fill:none;stroke:rgb(193,175,124);stroke-width:3px;"/>
            </g>
            <g transform="matrix(4.16667,0,0,4.16667,-3768.97,-3514.41)">
                <path d="M1055.44,939.958C1055.44,939.958 1055.78,931.637 1062.85,928.387C1069.91,925.137 1077.16,928.199 1076.22,935.637C1075.28,943.074 1066.35,944.887 1064.47,939.699C1062.6,934.512 1068.26,930.719 1071.05,933.178" style="fill:none;stroke:rgb(193,175,124);stroke-width:3px;"/>
            </g>
        </g>
        <g transform="matrix(1,0,0,-1,-481.444,4158.97)">
            <g transform="matrix(4.16667,0,0,4.16667,-3768.97,-3514.41)">
                <path d="M1269.9,930.692C1274.89,930.692 1279.42,928.863 1282.85,925.885C1279.42,922.908 1274.89,921.081 1269.9,921.081C1264.92,921.081 1260.38,922.908 1256.95,925.885C1260.38,928.863 1264.92,930.692 1269.9,930.692Z" style="fill:rgb(193,175,124);fill-rule:nonzero;"/>
            </g>
            <g transform="matrix(4.16667,0,0,4.16667,-3768.97,-3514.41)">
                <path d="M1025.97,1033.79L1025.97,926.012" style="fill:none;stroke:rgb(193,175,124);stroke-width:3px;"/>
            </g>
            <g transform="matrix(4.16667,0,0,4.16667,-3768.97,-3514.41)">
                <path d="M1025.97,1034.19C1025.97,1039.16 1030,1043.19 1034.98,1043.19C1039.95,1043.19 1043.98,1039.16 1043.98,1034.19C1043.98,1029.21 1039.95,1025.18 1034.98,1025.18" style="fill:none;stroke:rgb(193,175,124);stroke-width:3px;"/>
            </g>
            <g transform="matrix(4.16667,0,0,4.16667,-3768.97,-3514.41)">
                <path d="M1025.97,1000.18L1025.97,973.201" style="fill:none;stroke:rgb(193,175,124);stroke-width:3px;"/>
            </g>
            <g transform="matrix(4.16667,0,0,4.16667,-3768.97,-3514.41)">
                <path d="M1025.97,1000.46C1025.97,1003.96 1028.81,1006.8 1032.31,1006.8C1035.81,1006.8 1038.65,1003.96 1038.65,1000.46C1038.65,996.957 1035.81,994.119 1032.31,994.119" style="fill:none;stroke:rgb(193,175,124);stroke-width:3px;"/>
            </g>
            <g transform="matrix(4.16667,0,0,4.16667,-3768.97,-3514.41)">
                <path d="M1031.85,925.887C1031.85,929.131 1029.21,931.762 1025.97,931.762C1022.73,931.762 1020.1,929.131 1020.1,925.887C1020.1,922.642 1022.73,920.012 1025.97,920.012C1029.21,920.012 1031.85,922.642 1031.85,925.887Z" style="fill:rgb(193,175,124);fill-rule:nonzero;"/>
            </g>
            <g transform="matrix(4.16667,0,0,4.16667,-3768.97,-3514.41)">
                <path d="M1025.97,925.887L1268.76,925.887" style="fill:none;stroke:rgb(193,175,124);stroke-width:3px;"/>
            </g>
            <g transform="matrix(4.16667,0,0,4.16667,-3768.97,-3514.41)">
                <path d="M1252.97,921.887L1252.97,930.137" style="fill:none;stroke:rgb(193,175,124);stroke-width:3px;"/>
            </g>
            <g transform="matrix(4.16667,0,0,4.16667,-3768.97,-3514.41)">
                <path d="M1227.65,942.191C1231.77,942.191 1235.51,940.681 1238.35,938.22C1235.51,935.761 1231.77,934.252 1227.65,934.252C1223.53,934.252 1219.78,935.761 1216.95,938.22C1219.78,940.681 1223.53,942.191 1227.65,942.191Z" style="fill:rgb(193,175,124);fill-rule:nonzero;"/>
            </g>
            <g transform="matrix(4.16667,0,0,4.16667,-3768.97,-3514.41)">
                <path d="M1226.71,938.221L1082.76,938.221C1082.76,938.221 1079.26,947.553 1070.43,948.053" style="fill:none;stroke:rgb(193,175,124);stroke-width:3px;"/>
            </g>
            <g transform="matrix(4.16667,0,0,4.16667,-3768.97,-3514.41)">
                <path d="M1213.66,934.916L1213.66,941.733" style="fill:none;stroke:rgb(193,175,124);stroke-width:3px;"/>
            </g>
            <g transform="matrix(4.16667,0,0,4.16667,-3768.97,-3514.41)">
                <path d="M1034.95,995.594C1034.95,996.963 1033.84,998.072 1032.47,998.072C1031.1,998.072 1029.99,996.963 1029.99,995.594C1029.99,994.225 1031.1,993.115 1032.47,993.115C1033.84,993.115 1034.95,994.225 1034.95,995.594Z" style="fill:rgb(193,175,124);fill-rule:nonzero;"/>
            </g>
            <g transform="matrix(4.16667,0,0,4.16667,-3768.97,-3514.41)">
                <path d="M1045.85,925.887C1045.85,925.887 1028.85,927.514 1027.85,943.137C1026.85,958.762 1039.85,962.262 1048.1,960.262C1056.35,958.262 1061.22,949.762 1056.72,941.762C1052.22,933.762 1040.85,936.303 1040.68,944.387C1040.51,952.47 1050.76,953.303 1052.26,949.22" style="fill:none;stroke:rgb(193,175,124);stroke-width:3px;"/>
            </g>
            <g transform="matrix(4.16667,0,0,4.16667,-3768.97,-3514.41)">
                <path d="M1037.35,959.683C1037.35,959.683 1045.76,965.137 1044.68,972.803C1043.6,980.47 1030.91,982.512 1029.22,974.387C1027.53,966.262 1039.16,963.637 1041.35,971.074" style="fill:none;stroke:rgb(193,175,124);stroke-width:3px;"/>
            </g>
            <g transform="matrix(4.16667,0,0,4.16667,-3768.97,-3514.41)">
                <path d="M1055.44,939.958C1055.44,939.958 1055.78,931.637 1062.85,928.387C1069.91,925.137 1077.16,928.199 1076.22,935.637C1075.28,943.074 1066.35,944.887 1064.47,939.699C1062.6,934.512 1068.26,930.719 1071.05,933.178" style="fill:none;stroke:rgb(193,175,124);stroke-width:3px;"/>
            </g>
        </g>
        <g transform="matrix(-1,0,0,1,3556.44,-318.972)">
            <g transform="matrix(4.16667,0,0,4.16667,-3768.97,-3514.41)">
                <path d="M1269.9,930.692C1274.89,930.692 1279.42,928.863 1282.85,925.885C1279.42,922.908 1274.89,921.081 1269.9,921.081C1264.92,921.081 1260.38,922.908 1256.95,925.885C1260.38,928.863 1264.92,930.692 1269.9,930.692Z" style="fill:rgb(193,175,124);fill-rule:nonzero;"/>
            </g>
            <g transform="matrix(4.16667,0,0,4.16667,-3768.97,-3514.41)">
                <path d="M1025.97,1033.79L1025.97,926.012" style="fill:none;stroke:rgb(193,175,124);stroke-width:3px;"/>
            </g>
            <g transform="matrix(4.16667,0,0,4.16667,-3768.97,-3514.41)">
                <path d="M1025.97,1034.19C1025.97,1039.16 1030,1043.19 1034.98,1043.19C1039.95,1043.19 1043.98,1039.16 1043.98,1034.19C1043.98,1029.21 1039.95,1025.18 1034.98,1025.18" style="fill:none;stroke:rgb(193,175,124);stroke-width:3px;"/>
            </g>
            <g transform="matrix(4.16667,0,0,4.16667,-3768.97,-3514.41)">
                <path d="M1025.97,1000.18L1025.97,973.201" style="fill:none;stroke:rgb(193,175,124);stroke-width:3px;"/>
            </g>
            <g transform="matrix(4.16667,0,0,4.16667,-3768.97,-3514.41)">
                <path d="M1025.97,1000.46C1025.97,1003.96 1028.81,1006.8 1032.31,1006.8C1035.81,1006.8 1038.65,1003.96 1038.65,1000.46C1038.65,996.957 1035.81,994.119 1032.31,994.119" style="fill:none;stroke:rgb(193,175,124);stroke-width:3px;"/>
            </g>
            <g transform="matrix(4.16667,0,0,4.16667,-3768.97,-3514.41)">
                <path d="M1031.85,925.887C1031.85,929.131 1029.21,931.762 1025.97,931.762C1022.73,931.762 1020.1,929.131 1020.1,925.887C1020.1,922.642 1022.73,920.012 1025.97,920.012C1029.21,920.012 1031.85,922.642 1031.85,925.887Z" style="fill:rgb(193,175,124);fill-rule:nonzero;"/>
            </g>
            <g transform="matrix(4.16667,0,0,4.16667,-3768.97,-3514.41)">
                <path d="M1025.97,925.887L1268.76,925.887" style="fill:none;stroke:rgb(193,175,124);stroke-width:3px;"/>
            </g>
            <g transform="matrix(4.16667,0,0,4.16667,-3768.97,-3514.41)">
                <path d="M1252.97,921.887L1252.97,930.137" style="fill:none;stroke:rgb(193,175,124);stroke-width:3px;"/>
            </g>
            <g transform="matrix(4.16667,0,0,4.16667,-3768.97,-3514.41)">
                <path d="M1227.65,942.191C1231.77,942.191 1235.51,940.681 1238.35,938.22C1235.51,935.761 1231.77,934.252 1227.65,934.252C1223.53,934.252 1219.78,935.761 1216.95,938.22C1219.78,940.681 1223.53,942.191 1227.65,942.191Z" style="fill:rgb(193,175,124);fill-rule:nonzero;"/>
            </g>
            <g transform="matrix(4.16667,0,0,4.16667,-3768.97,-3514.41)">
                <path d="M1226.71,938.221L1082.76,938.221C1082.76,938.221 1079.26,947.553 1070.43,948.053" style="fill:none;stroke:rgb(193,175,124);stroke-width:3px;"/>
            </g>
            <g transform="matrix(4.16667,0,0,4.16667,-3768.97,-3514.41)">
                <path d="M1213.66,934.916L1213.66,941.733" style="fill:none;stroke:rgb(193,175,124);stroke-width:3px;"/>
            </g>
            <g transform="matrix(4.16667,0,0,4.16667,-3768.97,-3514.41)">
                <path d="M1034.95,995.594C1034.95,996.963 1033.84,998.072 1032.47,998.072C1031.1,998.072 1029.99,996.963 1029.99,995.594C1029.99,994.225 1031.1,993.115 1032.47,993.115C1033.84,993.115 1034.95,994.225 1034.95,995.594Z" style="fill:rgb(193,175,124);fill-rule:nonzero;"/>
            </g>
            <g transform="matrix(4.16667,0,0,4.16667,-3768.97,-3514.41)">
                <path d="M1045.85,925.887C1045.85,925.887 1028.85,927.514 1027.85,943.137C1026.85,958.762 1039.85,962.262 1048.1,960.262C1056.35,958.262 1061.22,949.762 1056.72,941.762C1052.22,933.762 1040.85,936.303 1040.68,944.387C1040.51,952.47 1050.76,953.303 1052.26,949.22" style="fill:none;stroke:rgb(193,175,124);stroke-width:3px;"/>
            </g>
            <g transform="matrix(4.16667,0,0,4.16667,-3768.97,-3514.41)">
                <path d="M1037.35,959.683C1037.35,959.683 1045.76,965.137 1044.68,972.803C1043.6,980.47 1030.91,982.512 1029.22,974.387C1027.53,966.262 1039.16,963.637 1041.35,971.074" style="fill:none;stroke:rgb(193,175,124);stroke-width:3px;"/>
            </g>
            <g transform="matrix(4.16667,0,0,4.16667,-3768.97,-3514.41)">
                <path d="M1055.44,939.958C1055.44,939.958 1055.78,931.637 1062.85,928.387C1069.91,925.137 1077.16,928.199 1076.22,935.637C1075.28,943.074 1066.35,944.887 1064.47,939.699C1062.6,934.512 1068.26,930.719 1071.05,933.178" style="fill:none;stroke:rgb(193,175,124);stroke-width:3px;"/>
            </g>
        </g>
        <g transform="matrix(-1,0,0,-1,3556.44,4158.97)">
            <g transform="matrix(4.16667,0,0,4.16667,-3768.97,-3514.41)">
                <path d="M1269.9,930.692C1274.89,930.692 1279.42,928.863 1282.85,925.885C1279.42,922.908 1274.89,921.081 1269.9,921.081C1264.92,921.081 1260.38,922.908 1256.95,925.885C1260.38,928.863 1264.92,930.692 1269.9,930.692Z" style="fill:rgb(193,175,124);fill-rule:nonzero;"/>
            </g>
            <g transform="matrix(4.16667,0,0,4.16667,-3768.97,-3514.41)">
                <path d="M1025.97,1033.79L1025.97,926.012" style="fill:none;stroke:rgb(193,175,124);stroke-width:3px;"/>
            </g>
            <g transform="matrix(4.16667,0,0,4.16667,-3768.97,-3514.41)">
                <path d="M1025.97,1034.19C1025.97,1039.16 1030,1043.19 1034.98,1043.19C1039.95,1043.19 1043.98,1039.16 1043.98,1034.19C1043.98,1029.21 1039.95,1025.18 1034.98,1025.18" style="fill:none;stroke:rgb(193,175,124);stroke-width:3px;"/>
            </g>
            <g transform="matrix(4.16667,0,0,4.16667,-3768.97,-3514.41)">
                <path d="M1025.97,1000.18L1025.97,973.201" style="fill:none;stroke:rgb(193,175,124);stroke-width:3px;"/>
            </g>
            <g transform="matrix(4.16667,0,0,4.16667,-3768.97,-3514.41)">
                <path d="M1025.97,1000.46C1025.97,1003.96 1028.81,1006.8 1032.31,1006.8C1035.81,1006.8 1038.65,1003.96 1038.65,1000.46C1038.65,996.957 1035.81,994.119 1032.31,994.119" style="fill:none;stroke:rgb(193,175,124);stroke-width:3px;"/>
            </g>
            <g transform="matrix(4.16667,0,0,4.16667,-3768.97,-3514.41)">
                <path d="M1031.85,925.887C1031.85,929.131 1029.21,931.762 1025.97,931.762C1022.73,931.762 1020.1,929.131 1020.1,925.887C1020.1,922.642 1022.73,920.012 1025.97,920.012C1029.21,920.012 1031.85,922.642 1031.85,925.887Z" style="fill:rgb(193,175,124);fill-rule:nonzero;"/>
            </g>
            <g transform="matrix(4.16667,0,0,4.16667,-3768.97,-3514.41)">
                <path d="M1025.97,925.887L1268.76,925.887" style="fill:none;stroke:rgb(193,175,124);stroke-width:3px;"/>
            </g>
            <g transform="matrix(4.16667,0,0,4.16667,-3768.97,-3514.41)">
                <path d="M1252.97,921.887L1252.97,930.137" style="fill:none;stroke:rgb(193,175,124);stroke-width:3px;"/>
            </g>
            <g transform="matrix(4.16667,0,0,4.16667,-3768.97,-3514.41)">
                <path d="M1227.65,942.191C1231.77,942.191 1235.51,940.681 1238.35,938.22C1235.51,935.761 1231.77,934.252 1227.65,934.252C1223.53,934.252 1219.78,935.761 1216.95,938.22C1219.78,940.681 1223.53,942.191 1227.65,942.191Z" style="fill:rgb(193,175,124);fill-rule:nonzero;"/>
            </g>
            <g transform="matrix(4.16667,0,0,4.16667,-3768.97,-3514.41)">
                <path d="M1226.71,938.221L1082.76,938.221C1082.76,938.221 1079.26,947.553 1070.43,948.053" style="fill:none;stroke:rgb(193,175,124);stroke-width:3px;"/>
            </g>
            <g transform="matrix(4.16667,0,0,4.16667,-3768.97,-3514.41)">
                <path d="M1213.66,934.916L1213.66,941.733" style="fill:none;stroke:rgb(193,175,124);stroke-width:3px;"/>
            </g>
            <g transform="matrix(4.16667,0,0,4.16667,-3768.97,-3514.41)">
                <path d="M1034.95,995.594C1034.95,996.963 1033.84,998.072 1032.47,998.072C1031.1,998.072 1029.99,996.963 1029.99,995.594C1029.99,994.225 1031.1,993.115 1032.47,993.115C1033.84,993.115 1034.95,994.225 1034.95,995.594Z" style="fill:rgb(193,175,124);fill-rule:nonzero;"/>
            </g>
            <g transform="matrix(4.16667,0,0,4.16667,-3768.97,-3514.41)">
                <path d="M1045.85,925.887C1045.85,925.887 1028.85,927.514 1027.85,943.137C1026.85,958.762 1039.85,962.262 1048.1,960.262C1056.35,958.262 1061.22,949.762 1056.72,941.762C1052.22,933.762 1040.85,936.303 1040.68,944.387C1040.51,952.47 1050.76,953.303 1052.26,949.22" style="fill:none;stroke:rgb(193,175,124);stroke-width:3px;"/>
            </g>
            <g transform="matrix(4.16667,0,0,4.16667,-3768.97,-3514.41)">
                <path d="M1037.35,959.683C1037.35,959.683 1045.76,965.137 1044.68,972.803C1043.6,980.47 1030.91,982.512 1029.22,974.387C1027.53,966.262 1039.16,963.637 1041.35,971.074" style="fill:none;stroke:rgb(193,175,124);stroke-width:3px;"/>
            </g>
            <g transform="matrix(4.16667,0,0,4.16667,-3768.97,-3514.41)">
                <path d="M1055.44,939.958C1055.44,939.958 1055.78,931.637 1062.85,928.387C1069.91,925.137 1077.16,928.199 1076.22,935.637C1075.28,943.074 1066.35,944.887 1064.47,939.699C1062.6,934.512 1068.26,930.719 1071.05,933.178" style="fill:none;stroke:rgb(193,175,124);stroke-width:3px;"/>
            </g>
        </g>
        <g transform="matrix(28.438,0,0,28.438,-28139.7,-38589)">
            <text x="1018.86px" y="1427.54px" style="font-family:'DINAlternate-Bold', 'DIN Alternate', sans-serif;font-weight:700;font-size:12px;fill:rgb(209,185,120);fill-opacity:0.3;">@instaflip</text>
        </g>
    </g>
    <g transform="matrix(4.16667,0,0,4.16667,-3056.67,-3582.51)">
        <path d="M987.602,954.404L987.602,1686.8" style="fill:none;stroke:rgb(193,175,124);stroke-opacity:0.2;stroke-width:3px;"/>
    </g>
    <g transform="matrix(4.16667,0,0,4.16667,-2098.34,-3582.51)">
        <path d="M987.602,954.404L987.602,1686.8" style="fill:none;stroke:rgb(193,175,124);stroke-opacity:0.2;stroke-width:3px;"/>
    </g>
    <g transform="matrix(2.40366e-16,-4.16667,3.92547,2.55135e-16,-3646.49,5428.34)">
        <path d="M987.602,954.404L987.602,1686.8" style="fill:none;stroke:rgb(193,175,124);stroke-opacity:0.2;stroke-width:3.09px;"/>
    </g>
    <g transform="matrix(2.40366e-16,-4.16667,3.92547,2.55135e-16,-3646.49,6641.67)">
        <path d="M987.602,954.404L987.602,1686.8" style="fill:none;stroke:rgb(193,175,124);stroke-opacity:0.2;stroke-width:3.09px;"/>
    </g>
</svg>
